<svg width="32" height="32" viewBox="0 0 32 32" fill="none" xmlns="http://www.w3.org/2000/svg">
<title>entropy.io favicon</title>
<defs>
<linearGradient id="entropy_grad" x1="0" y1="0" x2="32" y2="32" gradientUnits="userSpaceOnUse">
<stop stop-color="#FFB800"/>
<stop offset="1" stop-color="#FF0000"/>
</linearGradient>
</defs>
<g fill="url(#entropy_grad)">
<rect x="2" y="22" width="7" height="7" rx="1.5"/>
<rect x="11" y="22" width="7" height="7" rx="1.5"/>
<rect x="20" y="22" width="7" height="7" rx="1.5"/>
<rect x="2" y="13" width="7" height="7" rx="1.5"/>
<rect x="2" y="4" width="7" height="7" rx="1.5"/>
<rect x="11" y="4" width="7" height="7" rx="1.5"/>
<rect x="12.5" y="13" width="7" height="7" rx="1.5" transform="rotate(15 16 16.5)"/>
<rect x="22" y="11" width="7" height="7" rx="1.5" transform="rotate(30 25.5 14.5)"/>
<rect x="24" y="2" width="7" height="7" rx="1.5" transform="rotate(45 27.5 5.5)"/>
</g>
</svg>
